# Blender v3.4.1 OBJ File: 'Arrow.blend'
# www.blender.org
mtllib Arrow.mtl
o Cube
v 1.000000 0.086854 -1.000000
v 1.000000 -0.086854 -1.000000
v -1.000000 0.086854 -1.000000
v -1.000000 -0.086854 -1.000000
v 0.000000 0.086854 1.000000
v 0.000000 -0.086854 1.000000
vt 0.625000 0.500000
vt 0.875000 0.500000
vt 0.625000 0.750000
vt 0.375000 0.000000
vt 0.625000 0.000000
vt 0.625000 0.250000
vt 0.375000 0.250000
vt 0.125000 0.500000
vt 0.375000 0.500000
vt 0.125000 0.750000
vt 0.375000 0.750000
vn 0.0000 1.0000 0.0000
vn -0.8944 0.0000 0.4472
vn 0.0000 -1.0000 0.0000
vn 0.8944 0.0000 0.4472
vn 0.0000 0.0000 -1.0000
usemtl Material
s off
f 1/1/1 3/2/1 5/3/1
f 6/4/2 5/5/2 3/6/2 4/7/2
f 4/8/3 2/9/3 6/10/3
f 2/9/4 1/1/4 5/3/4 6/11/4
f 4/7/5 3/6/5 1/1/5 2/9/5
